<?xml version="1.0" encoding="UTF-8" standalone="no"?>
<!-- Created with Inkscape (http://www.inkscape.org/) -->

<svg
   xmlns:dc="http://purl.org/dc/elements/1.1/"
   xmlns:cc="http://creativecommons.org/ns#"
   xmlns:rdf="http://www.w3.org/1999/02/22-rdf-syntax-ns#"
   xmlns:svg="http://www.w3.org/2000/svg"
   xmlns="http://www.w3.org/2000/svg"
   xmlns:sodipodi="http://sodipodi.sourceforge.net/DTD/sodipodi-0.dtd"
   xmlns:inkscape="http://www.inkscape.org/namespaces/inkscape"
   version="1.1"
   id="svg3680"
   xml:space="preserve"
   width="120.88867"
   height="198.66667"
   viewBox="0 0 120.88867 198.66667"
   sodipodi:docname="IFPRI.svg"
   inkscape:version="0.92.1 r15371"><metadata
     id="metadata3686"><rdf:RDF><cc:Work
         rdf:about=""><dc:format>image/svg+xml</dc:format><dc:type
           rdf:resource="http://purl.org/dc/dcmitype/StillImage" /><dc:title></dc:title></cc:Work></rdf:RDF></metadata><defs
     id="defs3684"><clipPath
       clipPathUnits="userSpaceOnUse"
       id="clipPath3696"><path
         d="M 0,149 H 90.666 V 0 H 0 Z"
         id="path3694"
         inkscape:connector-curvature="0" /></clipPath></defs><sodipodi:namedview
     pagecolor="#ffffff"
     bordercolor="#666666"
     borderopacity="1"
     objecttolerance="10"
     gridtolerance="10"
     guidetolerance="10"
     inkscape:pageopacity="0"
     inkscape:pageshadow="2"
     inkscape:window-width="1280"
     inkscape:window-height="961"
     id="namedview3682"
     showgrid="false"
     inkscape:zoom="3.8355704"
     inkscape:cx="60.444336"
     inkscape:cy="99.333336"
     inkscape:window-x="-8"
     inkscape:window-y="-8"
     inkscape:window-maximized="1"
     inkscape:current-layer="g3688" /><g
     id="g3688"
     inkscape:groupmode="layer"
     inkscape:label="Vertical_RGB_Vector"
     transform="matrix(1.3333333,0,0,-1.3333333,0,198.66667)"><g
       id="g3690"><g
         id="g3692"
         clip-path="url(#clipPath3696)"><g
           id="g3698"
           transform="translate(9.1216,8.2598)"><path
             d="m 0,0 c 0.57,0.32 0.926,0.819 0.926,1.604 v 21.021 c 0,0.82 -0.356,1.319 -0.926,1.604 H 6.449 C 5.843,23.944 5.523,23.445 5.523,22.625 V 1.604 C 5.523,0.819 5.843,0.32 6.449,0 Z"
             style="fill:#429d46;fill-opacity:1;fill-rule:nonzero;stroke:none"
             id="path3700"
             inkscape:connector-curvature="0" /></g><g
           id="g3702"
           transform="translate(31.0332,30.565)"><path
             d="m 0,0 c -1.104,0 -6.877,0.142 -6.877,0.142 v -8.195 h 5.559 c 0.569,0 1.14,0.57 1.318,0.997 v -3.776 c -0.178,0.499 -0.749,1.033 -1.318,1.033 h -5.559 v -10.903 c 0,-0.855 0.356,-1.248 1.034,-1.603 h -6.628 c 0.677,0.355 1.069,0.748 1.069,1.603 V 0.32 c 0,0.82 -0.428,1.319 -1.069,1.603 H 2.672 L 2.85,-1.533 C 2.423,-0.678 1.675,-0.036 0,0"
             style="fill:#429d46;fill-opacity:1;fill-rule:nonzero;stroke:none"
             id="path3704"
             inkscape:connector-curvature="0" /></g><g
           id="g3706"
           transform="translate(42.1826,30.8145)"><path
             d="m 0,0 c -1.069,0 -1.817,-0.036 -1.817,-0.036 v -10.012 c 0.178,-0.107 0.891,-0.179 1.39,-0.179 1.888,0 5.487,0.677 5.487,5.274 C 5.06,-2.281 3.527,0 0,0 m 5.274,-11.26 c -1.176,-0.534 -4.348,-1.248 -7.091,-0.25 v -9.441 c 0,-0.784 0.392,-1.283 0.926,-1.604 H -7.34 c 0.57,0.321 0.998,0.82 0.998,1.604 V 0.071 c 0,0.819 -0.428,1.318 -0.998,1.603 h 8.088 c 7.162,0 8.909,-3.705 8.909,-6.627 0,-3.884 -3.35,-5.843 -4.383,-6.307"
             style="fill:#429d46;fill-opacity:1;fill-rule:nonzero;stroke:none"
             id="path3708"
             inkscape:connector-curvature="0" /></g><g
           id="g3710"
           transform="translate(61.1353,30.7783)"><path
             d="m 0,0 c -1.068,0 -2.066,-0.071 -2.066,-0.071 v -9.301 c 0,0 0.998,-0.07 1.603,-0.07 2.423,0 4.989,1.353 4.989,4.952 C 4.526,-2.85 3.528,0 0,0 m 10.405,-22.591 c -1.354,-0.035 -2.53,0.821 -3.171,1.676 -1.604,2.244 -3.172,4.846 -4.454,6.84 -0.927,1.426 -1.746,2.958 -3.279,2.958 -0.427,0 -1.567,-0.071 -1.567,-0.071 v -9.727 c 0,-0.784 0.392,-1.283 0.998,-1.603 h -6.45 c 0.57,0.32 0.927,0.819 0.927,1.603 V 0.107 c 0,0.819 -0.357,1.318 -0.927,1.603 h 7.696 c 7.376,0 9.051,-3.599 9.051,-5.986 0,-3.848 -3.492,-5.772 -6.021,-5.949 2.422,-0.25 3.491,-1.89 4.026,-2.673 0,0 4.311,-6.735 5.522,-8.196 0.714,-0.819 2.281,-1.424 2.281,-1.424 z"
             style="fill:#429d46;fill-opacity:1;fill-rule:nonzero;stroke:none"
             id="path3712"
             inkscape:connector-curvature="0" /></g><g
           id="g3714"
           transform="translate(74.6729,8.2598)"><path
             d="m 0,0 c 0.569,0.32 0.926,0.819 0.926,1.604 v 21.021 c 0,0.82 -0.357,1.319 -0.926,1.604 H 6.449 C 5.843,23.944 5.523,23.445 5.523,22.625 V 1.604 C 5.523,0.819 5.843,0.32 6.449,0 Z"
             style="fill:#429d46;fill-opacity:1;fill-rule:nonzero;stroke:none"
             id="path3716"
             inkscape:connector-curvature="0" /></g><g
           id="g3718"
           transform="translate(57.9038,60.4102)"><path
             d="m 0,0 c -3.697,0 -6.709,3.086 -6.709,6.871 0,3.786 3.012,6.875 6.709,6.875 3.693,0 6.71,-3.089 6.71,-6.875 C 6.71,3.086 3.693,0 0,0 m -22.711,40.561 c 0,3.128 2.491,5.678 5.55,5.678 3.057,0 5.547,-2.55 5.547,-5.678 0,-3.128 -2.49,-5.681 -5.547,-5.681 -3.059,0 -5.55,2.553 -5.55,5.681 m -13.677,29.24 c 0,2.506 2.03,4.548 4.516,4.548 2.485,0 4.515,-2.042 4.515,-4.548 0,-2.508 -2.03,-4.552 -4.515,-4.552 -2.486,0 -4.516,2.044 -4.516,4.552 M 22.431,15.484 V 56.728 C 4.529,48.324 -7.274,30.842 -11.205,8.488 c -2.766,3.02 -6.027,6.088 -9.346,8.674 8.039,21.2 22.468,35.338 42.982,40.808 V 79.818 H -5.025 c -11.844,-7.471 -19.681,-20.411 -22.499,-36.454 -2.243,2.445 -4.885,4.927 -7.569,7.02 5.166,13.62 13.593,23.665 25.149,29.434 h -37.902 v -4.233 c 5.943,-4.298 10.745,-9.705 14.247,-16.364 l -3.178,-7.605 c -0.935,0.703 -3.549,2.389 -3.549,2.389 -1.204,5.321 -2.117,6.631 -4.841,10.718 -0.824,1.467 -1.743,2.842 -2.679,4.129 V 55.015 c 12.823,-5.971 22.736,-14.754 29.14,-26.939 l -3.928,-9.395 c -1.154,0.872 -4.387,2.956 -4.387,2.956 -1.482,6.574 -2.609,8.192 -5.977,13.243 -3.964,7.066 -9.029,12.383 -14.848,16.493 V 28.461 C -27.709,22.305 -12.245,10.22 -1.913,-8.378 l -4.668,-9.765 h 3.176 C 2.556,-3.766 11.003,7.568 22.431,15.484"
             style="fill:#429d46;fill-opacity:1;fill-rule:nonzero;stroke:none"
             id="path3720"
             inkscape:connector-curvature="0" /></g><g
           id="g3722"
           transform="translate(10.0576,87.0088)"><path
             d="M 0,0 V -44.741 H 36.039 C 29.408,-22.77 17.085,-8.343 0,0"
             style="fill:#429d46;fill-opacity:1;fill-rule:nonzero;stroke:none"
             id="path3724"
             inkscape:connector-curvature="0" /></g><g
           id="g3726"
           transform="translate(80.335,42.2676)"><path
             d="M 0,0 V 23.283 C -5.162,16.232 -9.066,8.548 -11.742,0 Z"
             style="fill:#429d46;fill-opacity:1;fill-rule:nonzero;stroke:none"
             id="path3728"
             inkscape:connector-curvature="0" /></g></g></g></g></svg>